<svg width="24" height="24" viewBox="0 0 24 24" fill="none" xmlns="http://www.w3.org/2000/svg">
	<path
		d="M19.475 11.52L22.415 6.43L19.555 1.64L21.835 6.44L18.865 10.53L14.565 10.02L11.935 6.55L14.075 1.95L19.155 1.42L13.805 1.44L10.885 6.5L13.705 11.53L19.475 11.52ZM10.105 7.06H4.235L1.505 11.92L4.525 7.54L9.55501 8.07L11.265 12.05L9.575 16.06L4.515 16.51L1.525 12.38L4.205 17H10.045L12.995 12.06L10.105 7.06ZM22.495 17.55L19.575 12.49L13.815 12.41L10.925 17.42L13.875 22.5L19.445 22.42L14.145 21.98L12.095 17.37L14.685 13.9L19.015 13.36L21.925 17.52L19.835 22.18L22.495 17.55Z"
		fill="white" />
</svg>
